<svg xmlns="http://www.w3.org/2000/svg" width="447.656" height="82.127" viewBox="0 0 447.656 82.127">
  <g id="c" transform="translate(24 7.944)">
    <g id="Group_5598" data-name="Group 5598" transform="translate(-24 -7.944)">
      <path id="Path_29" data-name="Path 29" d="M48.866,12.831H8.961c-1.735,0-3.143,1.905-3.143,3.643a3.144,3.144,0,0,0,3.143,3.141H42.933c5.208,0,9.429,3.721,9.429,8.927a9.427,9.427,0,0,1-9.429,9.427H1.5a1,1,0,0,1-1-1V34.682a3,3,0,0,1,3-2.995H43.4a3.143,3.143,0,1,0,0-6.286H9.429C4.222,25.4,0,21.68,0,16.474S4.222,6.545,9.429,6.545H50.863a1,1,0,0,1,1,1V9.833A3,3,0,0,1,48.866,12.831Z" transform="translate(0 1.262)"/>
      <path id="Path_31" data-name="Path 31" d="M173.443,8.165a1.611,1.611,0,0,1-.624,1.276L156.761,21.877a.5.5,0,0,0,0,.793l16.053,12.374a1.615,1.615,0,0,1,.629,1.281v.029a1.618,1.618,0,0,1-1.617,1.618h-2.171A5.989,5.989,0,0,1,166,36.724L152.923,26.647a6.006,6.006,0,0,0-3.659-1.246h-4a6.006,6.006,0,0,0-3.659,1.246L128.531,36.724a5.989,5.989,0,0,1-3.659,1.249H122.7a1.618,1.618,0,0,1-1.617-1.618v-.029a1.615,1.615,0,0,1,.629-1.281l16.053-12.374a.5.5,0,0,0,0-.793L121.71,9.442a1.618,1.618,0,0,1,.992-2.9l2.21,0a5.985,5.985,0,0,1,3.65,1.252L141.552,17.86a5.98,5.98,0,0,0,3.67,1.255h4.083a5.984,5.984,0,0,0,3.67-1.255L165.967,7.8a5.982,5.982,0,0,1,3.65-1.252l2.206,0a1.62,1.62,0,0,1,1.62,1.62Z" transform="translate(23.352 1.262)"/>
      <rect id="Rectangle_16753" data-name="Rectangle 16753" width="2.153" height="49.133" transform="translate(219.788)"/>
      <path id="Path_32" data-name="Path 32" d="M244.927,9.666H216.642A11.654,11.654,0,0,0,204.989,21.32v1.131A11.651,11.651,0,0,0,216.642,34.1h28.286a.776.776,0,0,0,.777-.777V31.547a2.333,2.333,0,0,0-2.332-2.332h-27.1a6.756,6.756,0,0,1-6.758-6.758V21.311a6.758,6.758,0,0,1,6.758-6.758h27.1a2.332,2.332,0,0,0,2.332-2.331V10.443a.776.776,0,0,0-.777-.777Z" transform="translate(39.534 1.864)"/>
      <path id="Path_33" data-name="Path 33" d="M273.058,11.48a5.3,5.3,0,0,0-7.981,0l-16.067,21.7a.581.581,0,0,0,.468.927h2.982a3.1,3.1,0,0,0,2.5-1.258l3.051-4.119h22.116l3.051,4.119a3.1,3.1,0,0,0,2.5,1.258h2.982a.582.582,0,0,0,.468-.927l-16.067-21.7Zm-11.7,12.72,7.4-9.984a.385.385,0,0,1,.621,0l7.4,9.984H261.361Z" transform="translate(48.001 1.864)"/>
      <path id="Path_34" data-name="Path 34" d="M325.295,24.328h2.093c3.976,0,7.363-2.7,7.5-6.675.15-4.172-3.189-7.987-7.325-7.987H294.957a.776.776,0,0,0-.777.777V33.325a.776.776,0,0,0,.777.777h1.418a2.328,2.328,0,0,0,2.329-2.329V24.716a.39.39,0,0,1,.389-.389h16.6a4.649,4.649,0,0,1,2.845.972l10.183,7.847a4.666,4.666,0,0,0,2.845.969h2.061a1.274,1.274,0,0,0,1.262-1.45,1.344,1.344,0,0,0-.529-.867l-9.192-7.086A.215.215,0,0,1,325.295,24.328Zm-26.59-4.5V14.553h29.124a2.873,2.873,0,0,1,2.546,2.759,2.445,2.445,0,0,1-2.444,2.517H298.7Z" transform="translate(56.735 1.864)"/>
      <path id="Path_35" data-name="Path 35" d="M374.529,19.829H348.114a2.442,2.442,0,0,1-2.444-2.444,2.8,2.8,0,0,1,2.444-2.832h31.029a2.332,2.332,0,0,0,2.332-2.331V10.443a.778.778,0,0,0-.777-.777h-32.22c-4.049,0-7.331,3.67-7.331,7.72a7.009,7.009,0,0,0,7.331,6.942H374.9a2.444,2.444,0,1,1,0,4.887H343.867a2.331,2.331,0,0,0-2.332,2.329v1.781a.776.776,0,0,0,.777.777h32.217a7.333,7.333,0,0,0,7.334-7.331,7.011,7.011,0,0,0-7.334-6.942Z" transform="translate(65.793 1.864)"/>
      <path id="Path_36" data-name="Path 36" d="M109.083,19.987a9.258,9.258,0,0,0-8.209-13.442H62V37.973h43.815a9.309,9.309,0,0,0,3.266-17.987ZM67.751,12.356h33.123a3.5,3.5,0,0,1,0,7H67.751Zm38.066,19.806H67.751v-7h38.066a3.5,3.5,0,0,1,0,7Z" transform="translate(11.958 1.262)"/>
    </g>
    <g id="Group_5599" data-name="Group 5599" transform="translate(12.387)">
      <path id="Path_37" data-name="Path 37" d="M49.136,73.415a6.3,6.3,0,0,1-2.523-1.987l.631-.631a5.122,5.122,0,0,0,2.209,1.788,7.309,7.309,0,0,0,3.112.693,6.471,6.471,0,0,0,3.523-.83,2.565,2.565,0,0,0,1.293-2.262,2.38,2.38,0,0,0-.452-1.493,3.492,3.492,0,0,0-1.514-1.01,17.751,17.751,0,0,0-3.04-.8,15.192,15.192,0,0,1-3.187-.926A3.979,3.979,0,0,1,47.5,64.676a3.233,3.233,0,0,1-.526-1.893,3.164,3.164,0,0,1,.684-2.009,4.332,4.332,0,0,1,1.936-1.347,8.147,8.147,0,0,1,2.892-.473,7.888,7.888,0,0,1,2.944.536A5.973,5.973,0,0,1,57.7,61.059l-.589.651a5.322,5.322,0,0,0-2.008-1.4,6.923,6.923,0,0,0-2.641-.494,6.067,6.067,0,0,0-3.333.81,2.465,2.465,0,0,0-1.252,2.156,2.343,2.343,0,0,0,.441,1.462,3.382,3.382,0,0,0,1.452.988,16.16,16.16,0,0,0,2.8.768A18.218,18.218,0,0,1,56,66.969a4.041,4.041,0,0,1,1.767,1.283,3.233,3.233,0,0,1,.536,1.914,3.376,3.376,0,0,1-1.546,2.923,7.245,7.245,0,0,1-4.2,1.073,8.09,8.09,0,0,1-3.429-.747Z"/>
      <path id="Path_38" data-name="Path 38" d="M68.614,73.426a5.144,5.144,0,0,1-2.03-2.071,6.314,6.314,0,0,1-.726-3.061V59.207h.926v9.087a5.369,5.369,0,0,0,.609,2.6,4.42,4.42,0,0,0,1.7,1.756,5.28,5.28,0,0,0,5.006,0,4.427,4.427,0,0,0,1.7-1.756,5.37,5.37,0,0,0,.609-2.6V59.207h.926v9.087a6.314,6.314,0,0,1-.726,3.061,5.156,5.156,0,0,1-2.03,2.071,6.424,6.424,0,0,1-5.973,0Z"/>
      <path id="Path_39" data-name="Path 39" d="M94.873,59.818a4.106,4.106,0,0,1,1.683,1.7,5.27,5.27,0,0,1,.579,2.5,5.162,5.162,0,0,1-.579,2.471,4.1,4.1,0,0,1-1.693,1.693,5.388,5.388,0,0,1-2.629.61H86.912v5.132h-.926V59.207h6.247a5.385,5.385,0,0,1,2.64.61Zm.3,7.025a4.36,4.36,0,0,0,0-5.68,3.965,3.965,0,0,0-2.965-1.072h-5.3v7.824h5.3a3.964,3.964,0,0,0,2.965-1.072Z"/>
      <path id="Path_40" data-name="Path 40" d="M105.527,73.047h9.444v.884H104.6V59.207h10.1v.884h-9.171v5.952h8.729v.884h-8.729v6.12Z"/>
      <path id="Path_41" data-name="Path 41" d="M128.1,68.273h-4.27v5.658H122.9V59.207h6.373a5.334,5.334,0,0,1,2.514.568,4.038,4.038,0,0,1,1.672,1.6,4.706,4.706,0,0,1,.59,2.377,4.651,4.651,0,0,1-.59,2.366,4.082,4.082,0,0,1-1.661,1.588,5.281,5.281,0,0,1-2.5.567l5.216,5.658h-1.2L128.1,68.273Zm3.986-7.172a3.91,3.91,0,0,0-2.809-.989h-5.447V67.39h5.447a3.91,3.91,0,0,0,2.809-.989,3.893,3.893,0,0,0,0-5.3Z"/>
      <path id="Path_42" data-name="Path 42" d="M144.8,73.216a6.807,6.807,0,0,1-2.682-2.7,8.6,8.6,0,0,1,0-7.888,6.822,6.822,0,0,1,2.671-2.7,7.793,7.793,0,0,1,3.9-.968,7.246,7.246,0,0,1,5.237,2.188l-.631.609a6.557,6.557,0,0,0-2.093-1.419,6.317,6.317,0,0,0-2.492-.5,6.907,6.907,0,0,0-3.449.853,5.927,5.927,0,0,0-2.346,2.377,7.794,7.794,0,0,0,0,7,5.934,5.934,0,0,0,2.346,2.377,6.916,6.916,0,0,0,3.449.852,6.666,6.666,0,0,0,4.69-1.914l.609.609a6.9,6.9,0,0,1-2.4,1.631,7.624,7.624,0,0,1-2.9.557,7.859,7.859,0,0,1-3.912-.967Z"/>
      <path id="Path_43" data-name="Path 43" d="M173.295,73.931l-1.661-3.7h-8.961l-1.661,3.7H160l6.6-14.724H167.7l6.6,14.724H173.3ZM167.154,60.2l-4.1,9.128h8.2l-4.1-9.128Z"/>
      <path id="Path_44" data-name="Path 44" d="M186.778,68.273h-4.27v5.658h-.926V59.207h6.373a5.334,5.334,0,0,1,2.514.568,4.038,4.038,0,0,1,1.672,1.6,4.706,4.706,0,0,1,.59,2.377,4.651,4.651,0,0,1-.59,2.366,4.082,4.082,0,0,1-1.661,1.588,5.281,5.281,0,0,1-2.5.567l5.216,5.658h-1.2l-5.217-5.658Zm3.986-7.172a3.91,3.91,0,0,0-2.809-.989h-5.447V67.39h5.447a3.91,3.91,0,0,0,2.809-.989,3.893,3.893,0,0,0,0-5.3Z"/>
      <path id="Path_45" data-name="Path 45" d="M221.567,67.768A3.8,3.8,0,0,1,221,72.879a5.577,5.577,0,0,1-3.6,1.052h-6.415V59.207H217.4a4.679,4.679,0,0,1,3.177,1.041,3.485,3.485,0,0,1,1.2,2.767,3.739,3.739,0,0,1-.609,2.1,3.16,3.16,0,0,1-1.641,1.282,4.1,4.1,0,0,1,2.04,1.367Zm-1.63-6.878a3.78,3.78,0,0,0-2.535-.8h-5.489v5.89H217.4a3.827,3.827,0,0,0,2.556-.778,2.665,2.665,0,0,0,.915-2.146,2.7,2.7,0,0,0-.936-2.167Zm.4,11.337a2.967,2.967,0,0,0-.021-4.532,4.539,4.539,0,0,0-2.87-.831h-5.532v6.184h5.532a4.563,4.563,0,0,0,2.892-.82Z"/>
      <path id="Path_46" data-name="Path 46" d="M230.168,59.207h.926V73.026h8.435v.9h-9.36V59.207Z"/>
      <path id="Path_47" data-name="Path 47" d="M248.794,73.216a6.8,6.8,0,0,1-2.64-2.7,8.691,8.691,0,0,1,0-7.888,6.8,6.8,0,0,1,2.64-2.7,8.1,8.1,0,0,1,7.677,0,6.8,6.8,0,0,1,2.64,2.7,8.692,8.692,0,0,1,0,7.888,6.8,6.8,0,0,1-2.64,2.7,8.1,8.1,0,0,1-7.677,0Zm7.194-.767a5.978,5.978,0,0,0,2.314-2.388,7.751,7.751,0,0,0,0-6.983,5.969,5.969,0,0,0-2.314-2.387,7.028,7.028,0,0,0-6.71,0,5.969,5.969,0,0,0-2.314,2.387,7.75,7.75,0,0,0,0,6.983,5.978,5.978,0,0,0,2.314,2.388,7.035,7.035,0,0,0,6.71,0Z"/>
      <path id="Path_48" data-name="Path 48" d="M278.588,59.207h.9V73.931h-.968l-9.7-13.314V73.931H267.9V59.207h1.01l9.676,13.272Z"/>
      <path id="Path_49" data-name="Path 49" d="M297.117,60.144a6.684,6.684,0,0,1,2.65,2.608,8.173,8.173,0,0,1,0,7.635A6.689,6.689,0,0,1,297.117,73a7.95,7.95,0,0,1-3.892.936H288.3V59.207h4.922a7.95,7.95,0,0,1,3.892.937Zm-.484,12.063a5.846,5.846,0,0,0,2.324-2.293,7.107,7.107,0,0,0-.01-6.689,5.931,5.931,0,0,0-2.335-2.293,6.917,6.917,0,0,0-3.387-.82h-4V73.026h4a6.957,6.957,0,0,0,3.407-.82Z"/>
      <path id="Path_50" data-name="Path 50" d="M308.559,59.207h.926V73.931h-.926Z"/>
      <path id="Path_51" data-name="Path 51" d="M319.223,73.047h9.444v.884H318.3V59.207h10.1v.884h-9.171v5.952h8.729v.884h-8.729v6.12Z"/>
    </g>
  </g>
</svg>
